<svg width="94" height="91" viewBox="0 0 94 91" fill="none" xmlns="http://www.w3.org/2000/svg">
<path d="M42.3925 12.1148C42.3925 5.42397 47.8291 0 54.5355 0H81.8571C88.5634 0 94 5.42397 94 12.1148V39.373C94 46.0638 88.5634 51.4878 81.8571 51.4878H54.5355C47.8291 51.4878 42.3925 46.0638 42.3925 39.373V12.1148Z" fill="white"/>
<path d="M20.4689 31.0979C23.4327 28.141 28.238 28.141 31.2018 31.0979C34.1656 34.0549 34.1656 38.849 31.2018 41.806L12.9558 60.0097C9.99198 62.9666 5.18668 62.9666 2.22286 60.0097C-0.740955 57.0527 -0.740955 52.2586 2.22286 49.3016L20.4689 31.0979Z" fill="white" fill-opacity="0.5"/>
<path d="M26.5403 56.8418C29.5041 53.8849 34.3094 53.8849 37.2733 56.8418C40.2371 59.7988 40.2371 64.593 37.2733 67.5499L19.0273 85.7536C16.0635 88.7105 11.2582 88.7105 8.29433 85.7536C5.33051 82.7967 5.33051 78.0025 8.29433 75.0455L26.5403 56.8418Z" fill="white" fill-opacity="0.5"/>
<path d="M55.3798 59.8705C58.3436 56.9136 63.1489 56.9136 66.1127 59.8705C69.0766 62.8275 69.0766 67.6217 66.1127 70.5786L47.8667 88.7823C44.9029 91.7392 40.0976 91.7392 37.1338 88.7823C34.17 85.8253 34.17 81.0312 37.1338 78.0742L55.3798 59.8705Z" fill="white" fill-opacity="0.5"/>
</svg>
