<svg width="46" height="46" viewBox="0 0 46 46" fill="none" xmlns="http://www.w3.org/2000/svg">
<path fill-rule="evenodd" clip-rule="evenodd" d="M9.91367 0.721433C18.6113 -0.240478 27.3888 -0.240478 36.0865 0.721433C40.8381 1.25101 44.6689 4.98554 45.2269 9.74674C46.2577 18.5514 46.2577 27.446 45.2269 36.2506C44.6689 41.0118 40.8381 44.7463 36.089 45.2784C27.3905 46.2405 18.6122 46.2405 9.91367 45.2784C5.16203 44.7463 1.33119 41.0118 0.773207 36.2531C-0.257736 27.4476 -0.257736 18.5522 0.773207 9.74674C1.33119 4.98554 5.16203 1.25101 9.91367 0.721433ZM34.0347 15.4547L36.1365 13.4488V13.0066H28.8752L23.6982 25.8964L17.8131 13.0066H10.1964V13.4488L12.6486 16.3964C12.7687 16.5023 12.8616 16.6353 12.9195 16.7844C12.9774 16.9335 12.9986 17.0943 12.9813 17.2533V28.8465C13.0172 29.0525 13.0037 29.2639 12.9419 29.4637C12.8802 29.6634 12.7719 29.8457 12.626 29.9956L9.86363 33.3429V33.7801H17.6879V33.3404L14.928 29.9981C14.781 29.8483 14.6702 29.6668 14.6043 29.4676C14.5384 29.2684 14.519 29.0568 14.5477 28.849V18.822L21.4162 33.7826H22.2169L28.1145 18.822V30.745C28.1145 31.0623 28.1145 31.1222 27.9043 31.332L25.7825 33.3879V33.8275H36.084V33.3879L34.0372 31.3795C33.9492 31.3114 33.881 31.2211 33.8397 31.1179C33.7983 31.0147 33.7853 30.9024 33.802 30.7925V16.0417C33.7853 15.9318 33.7983 15.8195 33.8397 15.7163C33.881 15.6131 33.9467 15.5228 34.0347 15.4547Z" fill="#716FE5"/>
</svg>
