<svg width="97" height="156" viewBox="0 0 97 156" fill="none" xmlns="http://www.w3.org/2000/svg">
<g opacity="0.5">
<path d="M77.6 9.7C80.1726 9.7 82.6398 10.722 84.4589 12.5411C86.278 14.3602 87.3 16.8274 87.3 19.4V135.8C87.3 138.373 86.278 140.84 84.4589 142.659C82.6398 144.478 80.1726 145.5 77.6 145.5H19.4C16.8274 145.5 14.3602 144.478 12.5411 142.659C10.722 140.84 9.7 138.373 9.7 135.8V19.4C9.7 16.8274 10.722 14.3602 12.5411 12.5411C14.3602 10.722 16.8274 9.7 19.4 9.7H77.6ZM19.4 0C14.2548 0 9.32033 2.04392 5.68213 5.68213C2.04392 9.32033 0 14.2548 0 19.4V135.8C0 140.945 2.04392 145.88 5.68213 149.518C9.32033 153.156 14.2548 155.2 19.4 155.2H77.6C82.7452 155.2 87.6797 153.156 91.3179 149.518C94.9561 145.88 97 140.945 97 135.8V19.4C97 14.2548 94.9561 9.32033 91.3179 5.68213C87.6797 2.04392 82.7452 0 77.6 0L19.4 0Z" fill="black"/>
<path d="M48.5008 135.8C51.0734 135.8 53.5406 134.778 55.3597 132.959C57.1788 131.14 58.2008 128.673 58.2008 126.1C58.2008 123.528 57.1788 121.06 55.3597 119.241C53.5406 117.422 51.0734 116.4 48.5008 116.4C45.9282 116.4 43.461 117.422 41.6418 119.241C39.8227 121.06 38.8008 123.528 38.8008 126.1C38.8008 128.673 39.8227 131.14 41.6418 132.959C43.461 134.778 45.9282 135.8 48.5008 135.8Z" fill="black"/>
</g>
</svg>
